<?xml version="1.0" encoding="UTF-8" standalone="no"?>
<!DOCTYPE svg PUBLIC "-//W3C//DTD SVG 1.1//EN"
 "http://www.w3.org/Graphics/SVG/1.1/DTD/svg11.dtd">
<!-- Generated by graphviz version 2.47.3 (20210619.1520)
 -->
<!-- Title: dependencies Pages: 1 -->
<svg width="10490pt" height="247pt"
 viewBox="0.00 0.00 10490.00 246.80" xmlns="http://www.w3.org/2000/svg" xmlns:xlink="http://www.w3.org/1999/xlink">
<g id="graph0" class="graph" transform="scale(1 1) rotate(0) translate(4 242.8)">
<title>dependencies</title>
<polygon fill="white" stroke="transparent" points="-4,4 -4,-242.8 10486,-242.8 10486,4 -4,4"/>
<text text-anchor="middle" x="5241" y="-8.2" font-family="sans-serif" font-size="14.00">dependencies</text>
<g id="clust1" class="cluster">
<title>cluster_AppModule</title>
<polygon fill="none" stroke="black" stroke-dasharray="1,5" points="8,-32.8 8,-230.8 10474,-230.8 10474,-32.8 8,-32.8"/>
</g>
<g id="clust2" class="cluster">
<title>cluster_AppModule_declarations</title>
<polygon fill="none" stroke="black" points="420,-40.8 420,-92.8 10466,-92.8 10466,-40.8 420,-40.8"/>
</g>
<g id="clust67" class="cluster">
<title>cluster_AppModule_bootstrap</title>
<polygon fill="none" stroke="black" points="5281,-170.8 5281,-222.8 5405,-222.8 5405,-170.8 5281,-170.8"/>
</g>
<g id="clust68" class="cluster">
<title>cluster_AppModule_providers</title>
<polygon fill="none" stroke="black" points="16,-40.8 16,-92.8 412,-92.8 412,-40.8 16,-40.8"/>
</g>
<!-- AppComponent -->
<g id="node1" class="node">
<title>AppComponent</title>
<polygon fill="#ffffb3" stroke="black" points="10457.94,-84.8 10352.06,-84.8 10352.06,-48.8 10457.94,-48.8 10457.94,-84.8"/>
<text text-anchor="middle" x="10405" y="-62.6" font-family="Times,serif" font-size="14.00">AppComponent</text>
</g>
<!-- AppModule -->
<g id="node63" class="node">
<title>AppModule</title>
<polygon fill="#8dd3c7" stroke="black" points="5384.66,-149.8 5381.66,-153.8 5360.66,-153.8 5357.66,-149.8 5301.34,-149.8 5301.34,-113.8 5384.66,-113.8 5384.66,-149.8"/>
<text text-anchor="middle" x="5343" y="-127.6" font-family="Times,serif" font-size="14.00">AppModule</text>
</g>
<!-- AppComponent&#45;&gt;AppModule -->
<g id="edge1" class="edge">
<title>AppComponent&#45;&gt;AppModule</title>
<path fill="none" stroke="black" d="M10405,-85C10405,-109.16 10405,-148.8 10405,-148.8 10405,-148.8 5394.86,-148.8 5394.86,-148.8"/>
<polygon fill="black" stroke="black" points="5394.86,-145.3 5384.86,-148.8 5394.86,-152.3 5394.86,-145.3"/>
</g>
<!-- ArticleComponent -->
<g id="node2" class="node">
<title>ArticleComponent</title>
<polygon fill="#ffffb3" stroke="black" points="10334.2,-84.8 10213.8,-84.8 10213.8,-48.8 10334.2,-48.8 10334.2,-84.8"/>
<text text-anchor="middle" x="10274" y="-62.6" font-family="Times,serif" font-size="14.00">ArticleComponent</text>
</g>
<!-- ArticleComponent&#45;&gt;AppModule -->
<g id="edge2" class="edge">
<title>ArticleComponent&#45;&gt;AppModule</title>
<path fill="none" stroke="black" d="M10274,-85.18C10274,-109.08 10274,-147.8 10274,-147.8 10274,-147.8 5394.89,-147.8 5394.89,-147.8"/>
<polygon fill="black" stroke="black" points="5394.89,-144.3 5384.89,-147.8 5394.89,-151.3 5394.89,-144.3"/>
</g>
<!-- ArticleEditComponent -->
<g id="node3" class="node">
<title>ArticleEditComponent</title>
<polygon fill="#ffffb3" stroke="black" points="10195.54,-84.8 10052.46,-84.8 10052.46,-48.8 10195.54,-48.8 10195.54,-84.8"/>
<text text-anchor="middle" x="10124" y="-62.6" font-family="Times,serif" font-size="14.00">ArticleEditComponent</text>
</g>
<!-- ArticleEditComponent&#45;&gt;AppModule -->
<g id="edge3" class="edge">
<title>ArticleEditComponent&#45;&gt;AppModule</title>
<path fill="none" stroke="black" d="M10124,-84.95C10124,-108.56 10124,-146.8 10124,-146.8 10124,-146.8 5394.69,-146.8 5394.69,-146.8"/>
<polygon fill="black" stroke="black" points="5394.69,-143.3 5384.69,-146.8 5394.69,-150.3 5394.69,-143.3"/>
</g>
<!-- ArticleNewComponent -->
<g id="node4" class="node">
<title>ArticleNewComponent</title>
<polygon fill="#ffffb3" stroke="black" points="10034.13,-84.8 9887.87,-84.8 9887.87,-48.8 10034.13,-48.8 10034.13,-84.8"/>
<text text-anchor="middle" x="9961" y="-62.6" font-family="Times,serif" font-size="14.00">ArticleNewComponent</text>
</g>
<!-- ArticleNewComponent&#45;&gt;AppModule -->
<g id="edge4" class="edge">
<title>ArticleNewComponent&#45;&gt;AppModule</title>
<path fill="none" stroke="black" d="M9961,-85.12C9961,-108.46 9961,-145.8 9961,-145.8 9961,-145.8 5394.69,-145.8 5394.69,-145.8"/>
<polygon fill="black" stroke="black" points="5394.69,-142.3 5384.69,-145.8 5394.69,-149.3 5394.69,-142.3"/>
</g>
<!-- AuthenticationButtonComponent -->
<g id="node5" class="node">
<title>AuthenticationButtonComponent</title>
<polygon fill="#ffffb3" stroke="black" points="9869.15,-84.8 9666.85,-84.8 9666.85,-48.8 9869.15,-48.8 9869.15,-84.8"/>
<text text-anchor="middle" x="9768" y="-62.6" font-family="Times,serif" font-size="14.00">AuthenticationButtonComponent</text>
</g>
<!-- AuthenticationButtonComponent&#45;&gt;AppModule -->
<g id="edge5" class="edge">
<title>AuthenticationButtonComponent&#45;&gt;AppModule</title>
<path fill="none" stroke="black" d="M9768,-84.89C9768,-107.93 9768,-144.8 9768,-144.8 9768,-144.8 5394.68,-144.8 5394.68,-144.8"/>
<polygon fill="black" stroke="black" points="5394.68,-141.3 5384.68,-144.8 5394.68,-148.3 5394.68,-141.3"/>
</g>
<!-- CeramicaComponent -->
<g id="node6" class="node">
<title>CeramicaComponent</title>
<polygon fill="#ffffb3" stroke="black" points="9648.47,-84.8 9513.53,-84.8 9513.53,-48.8 9648.47,-48.8 9648.47,-84.8"/>
<text text-anchor="middle" x="9581" y="-62.6" font-family="Times,serif" font-size="14.00">CeramicaComponent</text>
</g>
<!-- CeramicaComponent&#45;&gt;AppModule -->
<g id="edge6" class="edge">
<title>CeramicaComponent&#45;&gt;AppModule</title>
<path fill="none" stroke="black" d="M9581,-85.05C9581,-107.82 9581,-143.8 9581,-143.8 9581,-143.8 5394.94,-143.8 5394.94,-143.8"/>
<polygon fill="black" stroke="black" points="5394.95,-140.3 5384.94,-143.8 5394.94,-147.3 5394.95,-140.3"/>
</g>
<!-- CeramicsComponent -->
<g id="node7" class="node">
<title>CeramicsComponent</title>
<polygon fill="#ffffb3" stroke="black" points="9495.2,-84.8 9360.8,-84.8 9360.8,-48.8 9495.2,-48.8 9495.2,-84.8"/>
<text text-anchor="middle" x="9428" y="-62.6" font-family="Times,serif" font-size="14.00">CeramicsComponent</text>
</g>
<!-- CeramicsComponent&#45;&gt;AppModule -->
<g id="edge7" class="edge">
<title>CeramicsComponent&#45;&gt;AppModule</title>
<path fill="none" stroke="black" d="M9428,-84.81C9428,-107.29 9428,-142.8 9428,-142.8 9428,-142.8 5394.76,-142.8 5394.76,-142.8"/>
<polygon fill="black" stroke="black" points="5394.76,-139.3 5384.76,-142.8 5394.76,-146.3 5394.76,-139.3"/>
</g>
<!-- ContextoComponent -->
<g id="node8" class="node">
<title>ContextoComponent</title>
<polygon fill="#ffffb3" stroke="black" points="9343.17,-84.8 9210.83,-84.8 9210.83,-48.8 9343.17,-48.8 9343.17,-84.8"/>
<text text-anchor="middle" x="9277" y="-62.6" font-family="Times,serif" font-size="14.00">ContextoComponent</text>
</g>
<!-- ContextoComponent&#45;&gt;AppModule -->
<g id="edge8" class="edge">
<title>ContextoComponent&#45;&gt;AppModule</title>
<path fill="none" stroke="black" d="M9277,-85.09C9277,-107.01 9277,-140.8 9277,-140.8 9277,-140.8 5394.85,-140.8 5394.85,-140.8"/>
<polygon fill="black" stroke="black" points="5394.85,-137.3 5384.85,-140.8 5394.85,-144.3 5394.85,-137.3"/>
</g>
<!-- ContextoDetalleComponent -->
<g id="node9" class="node">
<title>ContextoDetalleComponent</title>
<polygon fill="#ffffb3" stroke="black" points="9192.59,-84.8 9019.41,-84.8 9019.41,-48.8 9192.59,-48.8 9192.59,-84.8"/>
<text text-anchor="middle" x="9106" y="-62.6" font-family="Times,serif" font-size="14.00">ContextoDetalleComponent</text>
</g>
<!-- ContextoDetalleComponent&#45;&gt;AppModule -->
<g id="edge9" class="edge">
<title>ContextoDetalleComponent&#45;&gt;AppModule</title>
<path fill="none" stroke="black" d="M9106,-84.84C9106,-106.46 9106,-139.8 9106,-139.8 9106,-139.8 5394.94,-139.8 5394.94,-139.8"/>
<polygon fill="black" stroke="black" points="5394.94,-136.3 5384.94,-139.8 5394.94,-143.3 5394.94,-136.3"/>
</g>
<!-- ContextoEditComponent -->
<g id="node10" class="node">
<title>ContextoEditComponent</title>
<polygon fill="#ffffb3" stroke="black" points="9001,-84.8 8845,-84.8 8845,-48.8 9001,-48.8 9001,-84.8"/>
<text text-anchor="middle" x="8923" y="-62.6" font-family="Times,serif" font-size="14.00">ContextoEditComponent</text>
</g>
<!-- ContextoEditComponent&#45;&gt;AppModule -->
<g id="edge10" class="edge">
<title>ContextoEditComponent&#45;&gt;AppModule</title>
<path fill="none" stroke="black" d="M8923,-84.97C8923,-106.3 8923,-138.8 8923,-138.8 8923,-138.8 5394.76,-138.8 5394.76,-138.8"/>
<polygon fill="black" stroke="black" points="5394.76,-135.3 5384.76,-138.8 5394.76,-142.3 5394.76,-135.3"/>
</g>
<!-- ContextoExcelComponent -->
<g id="node11" class="node">
<title>ContextoExcelComponent</title>
<polygon fill="#ffffb3" stroke="black" points="8827.04,-84.8 8662.96,-84.8 8662.96,-48.8 8827.04,-48.8 8827.04,-84.8"/>
<text text-anchor="middle" x="8745" y="-62.6" font-family="Times,serif" font-size="14.00">ContextoExcelComponent</text>
</g>
<!-- ContextoExcelComponent&#45;&gt;AppModule -->
<g id="edge11" class="edge">
<title>ContextoExcelComponent&#45;&gt;AppModule</title>
<path fill="none" stroke="black" d="M8745,-85.08C8745,-106.12 8745,-137.8 8745,-137.8 8745,-137.8 5394.79,-137.8 5394.79,-137.8"/>
<polygon fill="black" stroke="black" points="5394.79,-134.3 5384.79,-137.8 5394.79,-141.3 5394.79,-134.3"/>
</g>
<!-- ErrorComponent -->
<g id="node12" class="node">
<title>ErrorComponent</title>
<polygon fill="#ffffb3" stroke="black" points="8644.37,-84.8 8533.63,-84.8 8533.63,-48.8 8644.37,-48.8 8644.37,-84.8"/>
<text text-anchor="middle" x="8589" y="-62.6" font-family="Times,serif" font-size="14.00">ErrorComponent</text>
</g>
<!-- ErrorComponent&#45;&gt;AppModule -->
<g id="edge12" class="edge">
<title>ErrorComponent&#45;&gt;AppModule</title>
<path fill="none" stroke="black" d="M8589,-84.83C8589,-105.57 8589,-136.8 8589,-136.8 8589,-136.8 5394.93,-136.8 5394.93,-136.8"/>
<polygon fill="black" stroke="black" points="5394.93,-133.3 5384.93,-136.8 5394.93,-140.3 5394.93,-133.3"/>
</g>
<!-- FichaContextoComponent -->
<g id="node13" class="node">
<title>FichaContextoComponent</title>
<polygon fill="#ffffb3" stroke="black" points="8515.77,-84.8 8352.23,-84.8 8352.23,-48.8 8515.77,-48.8 8515.77,-84.8"/>
<text text-anchor="middle" x="8434" y="-62.6" font-family="Times,serif" font-size="14.00">FichaContextoComponent</text>
</g>
<!-- FichaContextoComponent&#45;&gt;AppModule -->
<g id="edge13" class="edge">
<title>FichaContextoComponent&#45;&gt;AppModule</title>
<path fill="none" stroke="black" d="M8434,-84.93C8434,-105.37 8434,-135.8 8434,-135.8 8434,-135.8 5394.94,-135.8 5394.94,-135.8"/>
<polygon fill="black" stroke="black" points="5394.94,-132.3 5384.94,-135.8 5394.94,-139.3 5394.94,-132.3"/>
</g>
<!-- FichaLiticaComponent -->
<g id="node14" class="node">
<title>FichaLiticaComponent</title>
<polygon fill="#ffffb3" stroke="black" points="8334.59,-84.8 8189.41,-84.8 8189.41,-48.8 8334.59,-48.8 8334.59,-84.8"/>
<text text-anchor="middle" x="8262" y="-62.6" font-family="Times,serif" font-size="14.00">FichaLiticaComponent</text>
</g>
<!-- FichaLiticaComponent&#45;&gt;AppModule -->
<g id="edge14" class="edge">
<title>FichaLiticaComponent&#45;&gt;AppModule</title>
<path fill="none" stroke="black" d="M8262,-85.02C8262,-105.17 8262,-134.8 8262,-134.8 8262,-134.8 5394.82,-134.8 5394.82,-134.8"/>
<polygon fill="black" stroke="black" points="5394.82,-131.3 5384.82,-134.8 5394.82,-138.3 5394.82,-131.3"/>
</g>
<!-- FichaMetalComponent -->
<g id="node15" class="node">
<title>FichaMetalComponent</title>
<polygon fill="#ffffb3" stroke="black" points="8171.59,-84.8 8026.41,-84.8 8026.41,-48.8 8171.59,-48.8 8171.59,-84.8"/>
<text text-anchor="middle" x="8099" y="-62.6" font-family="Times,serif" font-size="14.00">FichaMetalComponent</text>
</g>
<!-- FichaMetalComponent&#45;&gt;AppModule -->
<g id="edge15" class="edge">
<title>FichaMetalComponent&#45;&gt;AppModule</title>
<path fill="none" stroke="black" d="M8099,-85.11C8099,-104.95 8099,-133.8 8099,-133.8 8099,-133.8 5394.91,-133.8 5394.91,-133.8"/>
<polygon fill="black" stroke="black" points="5394.91,-130.3 5384.91,-133.8 5394.91,-137.3 5394.91,-130.3"/>
</g>
<!-- FichaOrigenesComponent -->
<g id="node16" class="node">
<title>FichaOrigenesComponent</title>
<polygon fill="#ffffb3" stroke="black" points="8008.47,-84.8 7845.53,-84.8 7845.53,-48.8 8008.47,-48.8 8008.47,-84.8"/>
<text text-anchor="middle" x="7927" y="-62.6" font-family="Times,serif" font-size="14.00">FichaOrigenesComponent</text>
</g>
<!-- FichaOrigenesComponent&#45;&gt;AppModule -->
<g id="edge16" class="edge">
<title>FichaOrigenesComponent&#45;&gt;AppModule</title>
<path fill="none" stroke="black" d="M7927,-84.91C7927,-104.14 7927,-131.8 7927,-131.8 7927,-131.8 5394.9,-131.8 5394.9,-131.8"/>
<polygon fill="black" stroke="black" points="5394.9,-128.3 5384.9,-131.8 5394.9,-135.3 5394.9,-128.3"/>
</g>
<!-- FooterComponent -->
<g id="node17" class="node">
<title>FooterComponent</title>
<polygon fill="#ffffb3" stroke="black" points="7827.88,-84.8 7710.12,-84.8 7710.12,-48.8 7827.88,-48.8 7827.88,-84.8"/>
<text text-anchor="middle" x="7769" y="-62.6" font-family="Times,serif" font-size="14.00">FooterComponent</text>
</g>
<!-- FooterComponent&#45;&gt;AppModule -->
<g id="edge17" class="edge">
<title>FooterComponent&#45;&gt;AppModule</title>
<path fill="none" stroke="black" d="M7769,-84.97C7769,-103.89 7769,-130.8 7769,-130.8 7769,-130.8 5394.85,-130.8 5394.85,-130.8"/>
<polygon fill="black" stroke="black" points="5394.85,-127.3 5384.85,-130.8 5394.85,-134.3 5394.85,-127.3"/>
</g>
<!-- FormularioComponent -->
<g id="node18" class="node">
<title>FormularioComponent</title>
<polygon fill="#ffffb3" stroke="black" points="7692.32,-84.8 7547.68,-84.8 7547.68,-48.8 7692.32,-48.8 7692.32,-84.8"/>
<text text-anchor="middle" x="7620" y="-62.6" font-family="Times,serif" font-size="14.00">FormularioComponent</text>
</g>
<!-- FormularioComponent&#45;&gt;AppModule -->
<g id="edge18" class="edge">
<title>FormularioComponent&#45;&gt;AppModule</title>
<path fill="none" stroke="black" d="M7620,-85.02C7620,-103.63 7620,-129.8 7620,-129.8 7620,-129.8 5394.96,-129.8 5394.96,-129.8"/>
<polygon fill="black" stroke="black" points="5394.96,-126.3 5384.96,-129.8 5394.96,-133.3 5394.96,-126.3"/>
</g>
<!-- HeaderComponent -->
<g id="node19" class="node">
<title>HeaderComponent</title>
<polygon fill="#ffffb3" stroke="black" points="7529.74,-84.8 7408.26,-84.8 7408.26,-48.8 7529.74,-48.8 7529.74,-84.8"/>
<text text-anchor="middle" x="7469" y="-62.6" font-family="Times,serif" font-size="14.00">HeaderComponent</text>
</g>
<!-- HeaderComponent&#45;&gt;AppModule -->
<g id="edge19" class="edge">
<title>HeaderComponent&#45;&gt;AppModule</title>
<path fill="none" stroke="black" d="M7469,-85.07C7469,-103.36 7469,-128.8 7469,-128.8 7469,-128.8 5394.99,-128.8 5394.99,-128.8"/>
<polygon fill="black" stroke="black" points="5394.99,-125.3 5384.99,-128.8 5394.99,-132.3 5394.99,-125.3"/>
</g>
<!-- HomeComponent -->
<g id="node20" class="node">
<title>HomeComponent</title>
<polygon fill="#ffffb3" stroke="black" points="7389.55,-84.8 7274.45,-84.8 7274.45,-48.8 7389.55,-48.8 7389.55,-84.8"/>
<text text-anchor="middle" x="7332" y="-62.6" font-family="Times,serif" font-size="14.00">HomeComponent</text>
</g>
<!-- HomeComponent&#45;&gt;AppModule -->
<g id="edge20" class="edge">
<title>HomeComponent&#45;&gt;AppModule</title>
<path fill="none" stroke="black" d="M7332,-85.1C7332,-103.07 7332,-127.8 7332,-127.8 7332,-127.8 5395,-127.8 5395,-127.8"/>
<polygon fill="black" stroke="black" points="5395,-124.3 5385,-127.8 5395,-131.3 5395,-124.3"/>
</g>
<!-- LandingComponent -->
<g id="node21" class="node">
<title>LandingComponent</title>
<polygon fill="#ffffb3" stroke="black" points="7255.99,-84.8 7128.01,-84.8 7128.01,-48.8 7255.99,-48.8 7255.99,-84.8"/>
<text text-anchor="middle" x="7192" y="-62.6" font-family="Times,serif" font-size="14.00">LandingComponent</text>
</g>
<!-- LandingComponent&#45;&gt;AppModule -->
<g id="edge21" class="edge">
<title>LandingComponent&#45;&gt;AppModule</title>
<path fill="none" stroke="black" d="M7192,-84.8C7192,-102.48 7192,-126.8 7192,-126.8 7192,-126.8 5395.09,-126.8 5395.09,-126.8"/>
<polygon fill="black" stroke="black" points="5395.09,-123.3 5385.09,-126.8 5395.09,-130.3 5395.09,-123.3"/>
</g>
<!-- LiticaDetalleComponent -->
<g id="node22" class="node">
<title>LiticaDetalleComponent</title>
<polygon fill="#ffffb3" stroke="black" points="7110.41,-84.8 6955.59,-84.8 6955.59,-48.8 7110.41,-48.8 7110.41,-84.8"/>
<text text-anchor="middle" x="7033" y="-62.6" font-family="Times,serif" font-size="14.00">LiticaDetalleComponent</text>
</g>
<!-- LiticaDetalleComponent&#45;&gt;AppModule -->
<g id="edge22" class="edge">
<title>LiticaDetalleComponent&#45;&gt;AppModule</title>
<path fill="none" stroke="black" d="M7033,-84.82C7033,-102.17 7033,-125.8 7033,-125.8 7033,-125.8 5394.78,-125.8 5394.78,-125.8"/>
<polygon fill="black" stroke="black" points="5394.78,-122.3 5384.78,-125.8 5394.78,-129.3 5394.78,-122.3"/>
</g>
<!-- LiticaEditComponent -->
<g id="node23" class="node">
<title>LiticaEditComponent</title>
<polygon fill="#ffffb3" stroke="black" points="6937.82,-84.8 6800.18,-84.8 6800.18,-48.8 6937.82,-48.8 6937.82,-84.8"/>
<text text-anchor="middle" x="6869" y="-62.6" font-family="Times,serif" font-size="14.00">LiticaEditComponent</text>
</g>
<!-- LiticaEditComponent&#45;&gt;AppModule -->
<g id="edge23" class="edge">
<title>LiticaEditComponent&#45;&gt;AppModule</title>
<path fill="none" stroke="black" d="M6869,-84.83C6869,-101.86 6869,-124.8 6869,-124.8 6869,-124.8 5395.01,-124.8 5395.01,-124.8"/>
<polygon fill="black" stroke="black" points="5395.01,-121.3 5385.01,-124.8 5395.01,-128.3 5395.01,-121.3"/>
</g>
<!-- LiticaExcelComponent -->
<g id="node24" class="node">
<title>LiticaExcelComponent</title>
<polygon fill="#ffffb3" stroke="black" points="6781.86,-84.8 6636.14,-84.8 6636.14,-48.8 6781.86,-48.8 6781.86,-84.8"/>
<text text-anchor="middle" x="6709" y="-62.6" font-family="Times,serif" font-size="14.00">LiticaExcelComponent</text>
</g>
<!-- LiticaExcelComponent&#45;&gt;AppModule -->
<g id="edge24" class="edge">
<title>LiticaExcelComponent&#45;&gt;AppModule</title>
<path fill="none" stroke="black" d="M6709,-84.83C6709,-101.2 6709,-122.8 6709,-122.8 6709,-122.8 5395,-122.8 5395,-122.8"/>
<polygon fill="black" stroke="black" points="5395,-119.3 5385,-122.8 5395,-126.3 5395,-119.3"/>
</g>
<!-- LiticoComponent -->
<g id="node25" class="node">
<title>LiticoComponent</title>
<polygon fill="#ffffb3" stroke="black" points="6618.27,-84.8 6503.73,-84.8 6503.73,-48.8 6618.27,-48.8 6618.27,-84.8"/>
<text text-anchor="middle" x="6561" y="-62.6" font-family="Times,serif" font-size="14.00">LiticoComponent</text>
</g>
<!-- LiticoComponent&#45;&gt;AppModule -->
<g id="edge25" class="edge">
<title>LiticoComponent&#45;&gt;AppModule</title>
<path fill="none" stroke="black" d="M6561,-84.81C6561,-100.85 6561,-121.8 6561,-121.8 6561,-121.8 5394.93,-121.8 5394.93,-121.8"/>
<polygon fill="black" stroke="black" points="5394.93,-118.3 5384.93,-121.8 5394.93,-125.3 5394.93,-118.3"/>
</g>
<!-- LoginButtonComponent -->
<g id="node26" class="node">
<title>LoginButtonComponent</title>
<polygon fill="#ffffb3" stroke="black" points="6485.39,-84.8 6332.61,-84.8 6332.61,-48.8 6485.39,-48.8 6485.39,-84.8"/>
<text text-anchor="middle" x="6409" y="-62.6" font-family="Times,serif" font-size="14.00">LoginButtonComponent</text>
</g>
<!-- LoginButtonComponent&#45;&gt;AppModule -->
<g id="edge26" class="edge">
<title>LoginButtonComponent&#45;&gt;AppModule</title>
<path fill="none" stroke="black" d="M6409,-85.08C6409,-100.75 6409,-120.8 6409,-120.8 6409,-120.8 5394.79,-120.8 5394.79,-120.8"/>
<polygon fill="black" stroke="black" points="5394.79,-117.3 5384.79,-120.8 5394.79,-124.3 5394.79,-117.3"/>
</g>
<!-- LoginComponent -->
<g id="node27" class="node">
<title>LoginComponent</title>
<polygon fill="#ffffb3" stroke="black" points="6314.28,-84.8 6199.72,-84.8 6199.72,-48.8 6314.28,-48.8 6314.28,-84.8"/>
<text text-anchor="middle" x="6257" y="-62.6" font-family="Times,serif" font-size="14.00">LoginComponent</text>
</g>
<!-- LoginComponent&#45;&gt;AppModule -->
<g id="edge27" class="edge">
<title>LoginComponent&#45;&gt;AppModule</title>
<path fill="none" stroke="black" d="M6257,-85.04C6257,-100.37 6257,-119.8 6257,-119.8 6257,-119.8 5394.95,-119.8 5394.95,-119.8"/>
<polygon fill="black" stroke="black" points="5394.95,-116.3 5384.95,-119.8 5394.95,-123.3 5394.95,-116.3"/>
</g>
<!-- LogoutButtonComponent -->
<g id="node28" class="node">
<title>LogoutButtonComponent</title>
<polygon fill="#ffffb3" stroke="black" points="6181.89,-84.8 6022.11,-84.8 6022.11,-48.8 6181.89,-48.8 6181.89,-84.8"/>
<text text-anchor="middle" x="6102" y="-62.6" font-family="Times,serif" font-size="14.00">LogoutButtonComponent</text>
</g>
<!-- LogoutButtonComponent&#45;&gt;AppModule -->
<g id="edge28" class="edge">
<title>LogoutButtonComponent&#45;&gt;AppModule</title>
<path fill="none" stroke="black" d="M6102,-84.99C6102,-99.98 6102,-118.8 6102,-118.8 6102,-118.8 5394.89,-118.8 5394.89,-118.8"/>
<polygon fill="black" stroke="black" points="5394.89,-115.3 5384.89,-118.8 5394.89,-122.3 5394.89,-115.3"/>
</g>
<!-- MapaOrigenesComponent -->
<g id="node29" class="node">
<title>MapaOrigenesComponent</title>
<polygon fill="#ffffb3" stroke="black" points="6003.74,-84.8 5840.26,-84.8 5840.26,-48.8 6003.74,-48.8 6003.74,-84.8"/>
<text text-anchor="middle" x="5922" y="-62.6" font-family="Times,serif" font-size="14.00">MapaOrigenesComponent</text>
</g>
<!-- MapaOrigenesComponent&#45;&gt;AppModule -->
<g id="edge29" class="edge">
<title>MapaOrigenesComponent&#45;&gt;AppModule</title>
<path fill="none" stroke="black" d="M5922,-84.92C5922,-99.58 5922,-117.8 5922,-117.8 5922,-117.8 5395.11,-117.8 5395.11,-117.8"/>
<polygon fill="black" stroke="black" points="5395.11,-114.3 5385.11,-117.8 5395.11,-121.3 5395.11,-114.3"/>
</g>
<!-- MetalDetalleComponent -->
<g id="node30" class="node">
<title>MetalDetalleComponent</title>
<polygon fill="#ffffb3" stroke="black" points="5822.41,-84.8 5667.59,-84.8 5667.59,-48.8 5822.41,-48.8 5822.41,-84.8"/>
<text text-anchor="middle" x="5745" y="-62.6" font-family="Times,serif" font-size="14.00">MetalDetalleComponent</text>
</g>
<!-- MetalDetalleComponent&#45;&gt;AppModule -->
<g id="edge30" class="edge">
<title>MetalDetalleComponent&#45;&gt;AppModule</title>
<path fill="none" stroke="black" d="M5745,-84.85C5745,-99.17 5745,-116.8 5745,-116.8 5745,-116.8 5394.88,-116.8 5394.88,-116.8"/>
<polygon fill="black" stroke="black" points="5394.88,-113.3 5384.88,-116.8 5394.88,-120.3 5394.88,-113.3"/>
</g>
<!-- MetalEditComponent -->
<g id="node31" class="node">
<title>MetalEditComponent</title>
<polygon fill="#ffffb3" stroke="black" points="5649.82,-84.8 5512.18,-84.8 5512.18,-48.8 5649.82,-48.8 5649.82,-84.8"/>
<text text-anchor="middle" x="5581" y="-62.6" font-family="Times,serif" font-size="14.00">MetalEditComponent</text>
</g>
<!-- MetalEditComponent&#45;&gt;AppModule -->
<g id="edge31" class="edge">
<title>MetalEditComponent&#45;&gt;AppModule</title>
<path fill="none" stroke="black" d="M5581,-85.05C5581,-98.98 5581,-115.8 5581,-115.8 5581,-115.8 5394.73,-115.8 5394.73,-115.8"/>
<polygon fill="black" stroke="black" points="5394.73,-112.3 5384.73,-115.8 5394.73,-119.3 5394.73,-112.3"/>
</g>
<!-- MetalExcelComponent -->
<g id="node32" class="node">
<title>MetalExcelComponent</title>
<polygon fill="#ffffb3" stroke="black" points="5493.86,-84.8 5348.14,-84.8 5348.14,-48.8 5493.86,-48.8 5493.86,-84.8"/>
<text text-anchor="middle" x="5421" y="-62.6" font-family="Times,serif" font-size="14.00">MetalExcelComponent</text>
</g>
<!-- MetalExcelComponent&#45;&gt;AppModule -->
<g id="edge32" class="edge">
<title>MetalExcelComponent&#45;&gt;AppModule</title>
<path fill="none" stroke="black" d="M5366.45,-84.91C5366.45,-84.91 5366.45,-103.79 5366.45,-103.79"/>
<polygon fill="black" stroke="black" points="5362.95,-103.79 5366.45,-113.79 5369.95,-103.79 5362.95,-103.79"/>
</g>
<!-- MetalicoComponent -->
<g id="node33" class="node">
<title>MetalicoComponent</title>
<polygon fill="#ffffb3" stroke="black" points="5330.59,-84.8 5199.41,-84.8 5199.41,-48.8 5330.59,-48.8 5330.59,-84.8"/>
<text text-anchor="middle" x="5265" y="-62.6" font-family="Times,serif" font-size="14.00">MetalicoComponent</text>
</g>
<!-- MetalicoComponent&#45;&gt;AppModule -->
<g id="edge33" class="edge">
<title>MetalicoComponent&#45;&gt;AppModule</title>
<path fill="none" stroke="black" d="M5315.86,-84.91C5315.86,-84.91 5315.86,-103.79 5315.86,-103.79"/>
<polygon fill="black" stroke="black" points="5312.36,-103.79 5315.86,-113.79 5319.36,-103.79 5312.36,-103.79"/>
</g>
<!-- ModalOptionsComponent -->
<g id="node34" class="node">
<title>ModalOptionsComponent</title>
<polygon fill="#ffffb3" stroke="black" points="5181.21,-84.8 5018.79,-84.8 5018.79,-48.8 5181.21,-48.8 5181.21,-84.8"/>
<text text-anchor="middle" x="5100" y="-62.6" font-family="Times,serif" font-size="14.00">ModalOptionsComponent</text>
</g>
<!-- ModalOptionsComponent&#45;&gt;AppModule -->
<g id="edge34" class="edge">
<title>ModalOptionsComponent&#45;&gt;AppModule</title>
<path fill="none" stroke="black" d="M5100,-85.05C5100,-98.98 5100,-115.8 5100,-115.8 5100,-115.8 5291.23,-115.8 5291.23,-115.8"/>
<polygon fill="black" stroke="black" points="5291.23,-119.3 5301.23,-115.8 5291.23,-112.3 5291.23,-119.3"/>
</g>
<!-- PagDetalleLiteSitioComponent -->
<g id="node35" class="node">
<title>PagDetalleLiteSitioComponent</title>
<polygon fill="#ffffb3" stroke="black" points="5000.75,-84.8 4809.25,-84.8 4809.25,-48.8 5000.75,-48.8 5000.75,-84.8"/>
<text text-anchor="middle" x="4905" y="-62.6" font-family="Times,serif" font-size="14.00">PagDetalleLiteSitioComponent</text>
</g>
<!-- PagDetalleLiteSitioComponent&#45;&gt;AppModule -->
<g id="edge35" class="edge">
<title>PagDetalleLiteSitioComponent&#45;&gt;AppModule</title>
<path fill="none" stroke="black" d="M4905,-84.85C4905,-99.17 4905,-116.8 4905,-116.8 4905,-116.8 5291,-116.8 5291,-116.8"/>
<polygon fill="black" stroke="black" points="5291,-120.3 5301,-116.8 5291,-113.3 5291,-120.3"/>
</g>
<!-- PagLitComponent -->
<g id="node36" class="node">
<title>PagLitComponent</title>
<polygon fill="#ffffb3" stroke="black" points="4791.16,-84.8 4672.84,-84.8 4672.84,-48.8 4791.16,-48.8 4791.16,-84.8"/>
<text text-anchor="middle" x="4732" y="-62.6" font-family="Times,serif" font-size="14.00">PagLitComponent</text>
</g>
<!-- PagLitComponent&#45;&gt;AppModule -->
<g id="edge36" class="edge">
<title>PagLitComponent&#45;&gt;AppModule</title>
<path fill="none" stroke="black" d="M4732,-84.92C4732,-99.58 4732,-117.8 4732,-117.8 4732,-117.8 5291,-117.8 5291,-117.8"/>
<polygon fill="black" stroke="black" points="5291,-121.3 5301,-117.8 5291,-114.3 5291,-121.3"/>
</g>
<!-- PagLiteSitioNombreComponent -->
<g id="node37" class="node">
<title>PagLiteSitioNombreComponent</title>
<polygon fill="#ffffb3" stroke="black" points="4654.7,-84.8 4457.3,-84.8 4457.3,-48.8 4654.7,-48.8 4654.7,-84.8"/>
<text text-anchor="middle" x="4556" y="-62.6" font-family="Times,serif" font-size="14.00">PagLiteSitioNombreComponent</text>
</g>
<!-- PagLiteSitioNombreComponent&#45;&gt;AppModule -->
<g id="edge37" class="edge">
<title>PagLiteSitioNombreComponent&#45;&gt;AppModule</title>
<path fill="none" stroke="black" d="M4556,-84.99C4556,-99.98 4556,-118.8 4556,-118.8 4556,-118.8 5291.24,-118.8 5291.24,-118.8"/>
<polygon fill="black" stroke="black" points="5291.24,-122.3 5301.24,-118.8 5291.24,-115.3 5291.24,-122.3"/>
</g>
<!-- PagLiteSitiosComponent -->
<g id="node38" class="node">
<title>PagLiteSitiosComponent</title>
<polygon fill="#ffffb3" stroke="black" points="4439.28,-84.8 4282.72,-84.8 4282.72,-48.8 4439.28,-48.8 4439.28,-84.8"/>
<text text-anchor="middle" x="4361" y="-62.6" font-family="Times,serif" font-size="14.00">PagLiteSitiosComponent</text>
</g>
<!-- PagLiteSitiosComponent&#45;&gt;AppModule -->
<g id="edge38" class="edge">
<title>PagLiteSitiosComponent&#45;&gt;AppModule</title>
<path fill="none" stroke="black" d="M4361,-85.04C4361,-100.37 4361,-119.8 4361,-119.8 4361,-119.8 5291.12,-119.8 5291.12,-119.8"/>
<polygon fill="black" stroke="black" points="5291.12,-123.3 5301.12,-119.8 5291.12,-116.3 5291.12,-123.3"/>
</g>
<!-- PagMetComponent -->
<g id="node39" class="node">
<title>PagMetComponent</title>
<polygon fill="#ffffb3" stroke="black" points="4264.38,-84.8 4139.62,-84.8 4139.62,-48.8 4264.38,-48.8 4264.38,-84.8"/>
<text text-anchor="middle" x="4202" y="-62.6" font-family="Times,serif" font-size="14.00">PagMetComponent</text>
</g>
<!-- PagMetComponent&#45;&gt;AppModule -->
<g id="edge39" class="edge">
<title>PagMetComponent&#45;&gt;AppModule</title>
<path fill="none" stroke="black" d="M4202,-85.08C4202,-100.75 4202,-120.8 4202,-120.8 4202,-120.8 5291.04,-120.8 5291.04,-120.8"/>
<polygon fill="black" stroke="black" points="5291.04,-124.3 5301.04,-120.8 5291.04,-117.3 5291.04,-124.3"/>
</g>
<!-- PagOriComponent -->
<g id="node40" class="node">
<title>PagOriComponent</title>
<polygon fill="#ffffb3" stroke="black" points="4121.49,-84.8 4000.51,-84.8 4000.51,-48.8 4121.49,-48.8 4121.49,-84.8"/>
<text text-anchor="middle" x="4061" y="-62.6" font-family="Times,serif" font-size="14.00">PagOriComponent</text>
</g>
<!-- PagOriComponent&#45;&gt;AppModule -->
<g id="edge40" class="edge">
<title>PagOriComponent&#45;&gt;AppModule</title>
<path fill="none" stroke="black" d="M4061,-84.81C4061,-100.85 4061,-121.8 4061,-121.8 4061,-121.8 5291.07,-121.8 5291.07,-121.8"/>
<polygon fill="black" stroke="black" points="5291.07,-125.3 5301.07,-121.8 5291.07,-118.3 5291.07,-125.3"/>
</g>
<!-- PaginaComponent -->
<g id="node41" class="node">
<title>PaginaComponent</title>
<polygon fill="#ffffb3" stroke="black" points="3982.94,-84.8 3863.06,-84.8 3863.06,-48.8 3982.94,-48.8 3982.94,-84.8"/>
<text text-anchor="middle" x="3923" y="-62.6" font-family="Times,serif" font-size="14.00">PaginaComponent</text>
</g>
<!-- PaginaComponent&#45;&gt;AppModule -->
<g id="edge41" class="edge">
<title>PaginaComponent&#45;&gt;AppModule</title>
<path fill="none" stroke="black" d="M3923,-84.83C3923,-101.2 3923,-122.8 3923,-122.8 3923,-122.8 5291.27,-122.8 5291.27,-122.8"/>
<polygon fill="black" stroke="black" points="5291.27,-126.3 5301.27,-122.8 5291.27,-119.3 5291.27,-126.3"/>
</g>
<!-- PeliculasComponent -->
<g id="node42" class="node">
<title>PeliculasComponent</title>
<polygon fill="#ffffb3" stroke="black" points="3844.88,-84.8 3713.12,-84.8 3713.12,-48.8 3844.88,-48.8 3844.88,-84.8"/>
<text text-anchor="middle" x="3779" y="-62.6" font-family="Times,serif" font-size="14.00">PeliculasComponent</text>
</g>
<!-- PeliculasComponent&#45;&gt;AppModule -->
<g id="edge42" class="edge">
<title>PeliculasComponent&#45;&gt;AppModule</title>
<path fill="none" stroke="black" d="M3779,-84.83C3779,-101.86 3779,-124.8 3779,-124.8 3779,-124.8 5291.17,-124.8 5291.17,-124.8"/>
<polygon fill="black" stroke="black" points="5291.17,-128.3 5301.17,-124.8 5291.17,-121.3 5291.17,-128.3"/>
</g>
<!-- PlasticaComponent -->
<g id="node43" class="node">
<title>PlasticaComponent</title>
<polygon fill="#ffffb3" stroke="black" points="3695.38,-84.8 3570.62,-84.8 3570.62,-48.8 3695.38,-48.8 3695.38,-84.8"/>
<text text-anchor="middle" x="3633" y="-62.6" font-family="Times,serif" font-size="14.00">PlasticaComponent</text>
</g>
<!-- PlasticaComponent&#45;&gt;AppModule -->
<g id="edge43" class="edge">
<title>PlasticaComponent&#45;&gt;AppModule</title>
<path fill="none" stroke="black" d="M3633,-84.82C3633,-102.17 3633,-125.8 3633,-125.8 3633,-125.8 5291.15,-125.8 5291.15,-125.8"/>
<polygon fill="black" stroke="black" points="5291.15,-129.3 5301.15,-125.8 5291.15,-122.3 5291.15,-129.3"/>
</g>
<!-- PoliticasUsoComponent -->
<g id="node44" class="node">
<title>PoliticasUsoComponent</title>
<polygon fill="#ffffb3" stroke="black" points="3553.1,-84.8 3400.9,-84.8 3400.9,-48.8 3553.1,-48.8 3553.1,-84.8"/>
<text text-anchor="middle" x="3477" y="-62.6" font-family="Times,serif" font-size="14.00">PoliticasUsoComponent</text>
</g>
<!-- PoliticasUsoComponent&#45;&gt;AppModule -->
<g id="edge44" class="edge">
<title>PoliticasUsoComponent&#45;&gt;AppModule</title>
<path fill="none" stroke="black" d="M3477,-84.8C3477,-102.48 3477,-126.8 3477,-126.8 3477,-126.8 5290.97,-126.8 5290.97,-126.8"/>
<polygon fill="black" stroke="black" points="5290.97,-130.3 5300.97,-126.8 5290.97,-123.3 5290.97,-130.3"/>
</g>
<!-- RegistroComponent -->
<g id="node45" class="node">
<title>RegistroComponent</title>
<polygon fill="#ffffb3" stroke="black" points="3383.27,-84.8 3254.73,-84.8 3254.73,-48.8 3383.27,-48.8 3383.27,-84.8"/>
<text text-anchor="middle" x="3319" y="-62.6" font-family="Times,serif" font-size="14.00">RegistroComponent</text>
</g>
<!-- RegistroComponent&#45;&gt;AppModule -->
<g id="edge45" class="edge">
<title>RegistroComponent&#45;&gt;AppModule</title>
<path fill="none" stroke="black" d="M3319,-85.1C3319,-103.07 3319,-127.8 3319,-127.8 3319,-127.8 5291.19,-127.8 5291.19,-127.8"/>
<polygon fill="black" stroke="black" points="5291.19,-131.3 5301.19,-127.8 5291.19,-124.3 5291.19,-131.3"/>
</g>
<!-- RegistroOrigenesComponent -->
<g id="node46" class="node">
<title>RegistroOrigenesComponent</title>
<polygon fill="#ffffb3" stroke="black" points="3236.8,-84.8 3057.2,-84.8 3057.2,-48.8 3236.8,-48.8 3236.8,-84.8"/>
<text text-anchor="middle" x="3147" y="-62.6" font-family="Times,serif" font-size="14.00">RegistroOrigenesComponent</text>
</g>
<!-- RegistroOrigenesComponent&#45;&gt;AppModule -->
<g id="edge46" class="edge">
<title>RegistroOrigenesComponent&#45;&gt;AppModule</title>
<path fill="none" stroke="black" d="M3147,-85.07C3147,-103.36 3147,-128.8 3147,-128.8 3147,-128.8 5291.09,-128.8 5291.09,-128.8"/>
<polygon fill="black" stroke="black" points="5291.09,-132.3 5301.09,-128.8 5291.09,-125.3 5291.09,-132.3"/>
</g>
<!-- ReportePublicoComponent -->
<g id="node47" class="node">
<title>ReportePublicoComponent</title>
<polygon fill="#ffffb3" stroke="black" points="3039.43,-84.8 2870.57,-84.8 2870.57,-48.8 3039.43,-48.8 3039.43,-84.8"/>
<text text-anchor="middle" x="2955" y="-62.6" font-family="Times,serif" font-size="14.00">ReportePublicoComponent</text>
</g>
<!-- ReportePublicoComponent&#45;&gt;AppModule -->
<g id="edge47" class="edge">
<title>ReportePublicoComponent&#45;&gt;AppModule</title>
<path fill="none" stroke="black" d="M2955,-85.02C2955,-103.63 2955,-129.8 2955,-129.8 2955,-129.8 5291.3,-129.8 5291.3,-129.8"/>
<polygon fill="black" stroke="black" points="5291.3,-133.3 5301.3,-129.8 5291.3,-126.3 5291.3,-133.3"/>
</g>
<!-- SearchCombCeraComponent -->
<g id="node48" class="node">
<title>SearchCombCeraComponent</title>
<polygon fill="#ffffb3" stroke="black" points="2853.07,-84.8 2672.93,-84.8 2672.93,-48.8 2853.07,-48.8 2853.07,-84.8"/>
<text text-anchor="middle" x="2763" y="-62.6" font-family="Times,serif" font-size="14.00">SearchCombCeraComponent</text>
</g>
<!-- SearchCombCeraComponent&#45;&gt;AppModule -->
<g id="edge48" class="edge">
<title>SearchCombCeraComponent&#45;&gt;AppModule</title>
<path fill="none" stroke="black" d="M2763,-84.97C2763,-103.89 2763,-130.8 2763,-130.8 2763,-130.8 5291.17,-130.8 5291.17,-130.8"/>
<polygon fill="black" stroke="black" points="5291.17,-134.3 5301.17,-130.8 5291.17,-127.3 5291.17,-134.3"/>
</g>
<!-- SearchCombMetComponent -->
<g id="node49" class="node">
<title>SearchCombMetComponent</title>
<polygon fill="#ffffb3" stroke="black" points="2655.2,-84.8 2478.8,-84.8 2478.8,-48.8 2655.2,-48.8 2655.2,-84.8"/>
<text text-anchor="middle" x="2567" y="-62.6" font-family="Times,serif" font-size="14.00">SearchCombMetComponent</text>
</g>
<!-- SearchCombMetComponent&#45;&gt;AppModule -->
<g id="edge49" class="edge">
<title>SearchCombMetComponent&#45;&gt;AppModule</title>
<path fill="none" stroke="black" d="M2567,-84.91C2567,-104.14 2567,-131.8 2567,-131.8 2567,-131.8 5291.33,-131.8 5291.33,-131.8"/>
<polygon fill="black" stroke="black" points="5291.33,-135.3 5301.33,-131.8 5291.33,-128.3 5291.33,-135.3"/>
</g>
<!-- SearchComblitComponent -->
<g id="node50" class="node">
<title>SearchComblitComponent</title>
<polygon fill="#ffffb3" stroke="black" points="2460.82,-84.8 2295.18,-84.8 2295.18,-48.8 2460.82,-48.8 2460.82,-84.8"/>
<text text-anchor="middle" x="2378" y="-62.6" font-family="Times,serif" font-size="14.00">SearchComblitComponent</text>
</g>
<!-- SearchComblitComponent&#45;&gt;AppModule -->
<g id="edge50" class="edge">
<title>SearchComblitComponent&#45;&gt;AppModule</title>
<path fill="none" stroke="black" d="M2378,-85.11C2378,-104.95 2378,-133.8 2378,-133.8 2378,-133.8 5291.09,-133.8 5291.09,-133.8"/>
<polygon fill="black" stroke="black" points="5291.09,-137.3 5301.09,-133.8 5291.09,-130.3 5291.09,-137.3"/>
</g>
<!-- SearchComponent -->
<g id="node51" class="node">
<title>SearchComponent</title>
<polygon fill="#ffffb3" stroke="black" points="2277.92,-84.8 2158.08,-84.8 2158.08,-48.8 2277.92,-48.8 2277.92,-84.8"/>
<text text-anchor="middle" x="2218" y="-62.6" font-family="Times,serif" font-size="14.00">SearchComponent</text>
</g>
<!-- SearchComponent&#45;&gt;AppModule -->
<g id="edge51" class="edge">
<title>SearchComponent&#45;&gt;AppModule</title>
<path fill="none" stroke="black" d="M2218,-85.02C2218,-105.17 2218,-134.8 2218,-134.8 2218,-134.8 5291.19,-134.8 5291.19,-134.8"/>
<polygon fill="black" stroke="black" points="5291.19,-138.3 5301.19,-134.8 5291.19,-131.3 5291.19,-138.3"/>
</g>
<!-- SearchContextoComponent -->
<g id="node52" class="node">
<title>SearchContextoComponent</title>
<polygon fill="#ffffb3" stroke="black" points="2140.25,-84.8 1969.75,-84.8 1969.75,-48.8 2140.25,-48.8 2140.25,-84.8"/>
<text text-anchor="middle" x="2055" y="-62.6" font-family="Times,serif" font-size="14.00">SearchContextoComponent</text>
</g>
<!-- SearchContextoComponent&#45;&gt;AppModule -->
<g id="edge52" class="edge">
<title>SearchContextoComponent&#45;&gt;AppModule</title>
<path fill="none" stroke="black" d="M2055,-84.93C2055,-105.37 2055,-135.8 2055,-135.8 2055,-135.8 5291.13,-135.8 5291.13,-135.8"/>
<polygon fill="black" stroke="black" points="5291.13,-139.3 5301.13,-135.8 5291.13,-132.3 5291.13,-139.3"/>
</g>
<!-- SearchLiticoComponent -->
<g id="node53" class="node">
<title>SearchLiticoComponent</title>
<polygon fill="#ffffb3" stroke="black" points="1951.36,-84.8 1798.64,-84.8 1798.64,-48.8 1951.36,-48.8 1951.36,-84.8"/>
<text text-anchor="middle" x="1875" y="-62.6" font-family="Times,serif" font-size="14.00">SearchLiticoComponent</text>
</g>
<!-- SearchLiticoComponent&#45;&gt;AppModule -->
<g id="edge53" class="edge">
<title>SearchLiticoComponent&#45;&gt;AppModule</title>
<path fill="none" stroke="black" d="M1875,-84.83C1875,-105.57 1875,-136.8 1875,-136.8 1875,-136.8 5291.33,-136.8 5291.33,-136.8"/>
<polygon fill="black" stroke="black" points="5291.33,-140.3 5301.33,-136.8 5291.33,-133.3 5291.33,-140.3"/>
</g>
<!-- SearchMetalicoComponent -->
<g id="node54" class="node">
<title>SearchMetalicoComponent</title>
<polygon fill="#ffffb3" stroke="black" points="1780.68,-84.8 1611.32,-84.8 1611.32,-48.8 1780.68,-48.8 1780.68,-84.8"/>
<text text-anchor="middle" x="1696" y="-62.6" font-family="Times,serif" font-size="14.00">SearchMetalicoComponent</text>
</g>
<!-- SearchMetalicoComponent&#45;&gt;AppModule -->
<g id="edge54" class="edge">
<title>SearchMetalicoComponent&#45;&gt;AppModule</title>
<path fill="none" stroke="black" d="M1696,-85.08C1696,-106.12 1696,-137.8 1696,-137.8 1696,-137.8 5291.1,-137.8 5291.1,-137.8"/>
<polygon fill="black" stroke="black" points="5291.1,-141.3 5301.1,-137.8 5291.1,-134.3 5291.1,-141.3"/>
</g>
<!-- SearchSitioComponent -->
<g id="node55" class="node">
<title>SearchSitioComponent</title>
<polygon fill="#ffffb3" stroke="black" points="1592.87,-84.8 1447.13,-84.8 1447.13,-48.8 1592.87,-48.8 1592.87,-84.8"/>
<text text-anchor="middle" x="1520" y="-62.6" font-family="Times,serif" font-size="14.00">SearchSitioComponent</text>
</g>
<!-- SearchSitioComponent&#45;&gt;AppModule -->
<g id="edge55" class="edge">
<title>SearchSitioComponent&#45;&gt;AppModule</title>
<path fill="none" stroke="black" d="M1520,-84.97C1520,-106.3 1520,-138.8 1520,-138.8 1520,-138.8 5291.04,-138.8 5291.04,-138.8"/>
<polygon fill="black" stroke="black" points="5291.04,-142.3 5301.04,-138.8 5291.04,-135.3 5291.04,-142.3"/>
</g>
<!-- SidebarComponent -->
<g id="node56" class="node">
<title>SidebarComponent</title>
<polygon fill="#ffffb3" stroke="black" points="1429.1,-84.8 1304.9,-84.8 1304.9,-48.8 1429.1,-48.8 1429.1,-84.8"/>
<text text-anchor="middle" x="1367" y="-62.6" font-family="Times,serif" font-size="14.00">SidebarComponent</text>
</g>
<!-- SidebarComponent&#45;&gt;AppModule -->
<g id="edge56" class="edge">
<title>SidebarComponent&#45;&gt;AppModule</title>
<path fill="none" stroke="black" d="M1367,-84.84C1367,-106.46 1367,-139.8 1367,-139.8 1367,-139.8 5291.04,-139.8 5291.04,-139.8"/>
<polygon fill="black" stroke="black" points="5291.04,-143.3 5301.04,-139.8 5291.04,-136.3 5291.04,-143.3"/>
</g>
<!-- SitioComponent -->
<g id="node57" class="node">
<title>SitioComponent</title>
<polygon fill="#ffffb3" stroke="black" points="1286.79,-84.8 1179.21,-84.8 1179.21,-48.8 1286.79,-48.8 1286.79,-84.8"/>
<text text-anchor="middle" x="1233" y="-62.6" font-family="Times,serif" font-size="14.00">SitioComponent</text>
</g>
<!-- SitioComponent&#45;&gt;AppModule -->
<g id="edge57" class="edge">
<title>SitioComponent&#45;&gt;AppModule</title>
<path fill="none" stroke="black" d="M1233,-85.09C1233,-107.01 1233,-140.8 1233,-140.8 1233,-140.8 5291.32,-140.8 5291.32,-140.8"/>
<polygon fill="black" stroke="black" points="5291.32,-144.3 5301.32,-140.8 5291.32,-137.3 5291.32,-144.3"/>
</g>
<!-- SitioDetalleComponent -->
<g id="node58" class="node">
<title>SitioDetalleComponent</title>
<polygon fill="#ffffb3" stroke="black" points="1161.21,-84.8 1012.79,-84.8 1012.79,-48.8 1161.21,-48.8 1161.21,-84.8"/>
<text text-anchor="middle" x="1087" y="-62.6" font-family="Times,serif" font-size="14.00">SitioDetalleComponent</text>
</g>
<!-- SitioDetalleComponent&#45;&gt;AppModule -->
<g id="edge58" class="edge">
<title>SitioDetalleComponent&#45;&gt;AppModule</title>
<path fill="none" stroke="black" d="M1087,-84.81C1087,-107.29 1087,-142.8 1087,-142.8 1087,-142.8 5291.22,-142.8 5291.22,-142.8"/>
<polygon fill="black" stroke="black" points="5291.22,-146.3 5301.22,-142.8 5291.22,-139.3 5291.22,-146.3"/>
</g>
<!-- SitioEditComponent -->
<g id="node59" class="node">
<title>SitioEditComponent</title>
<polygon fill="#ffffb3" stroke="black" points="994.62,-84.8 863.38,-84.8 863.38,-48.8 994.62,-48.8 994.62,-84.8"/>
<text text-anchor="middle" x="929" y="-62.6" font-family="Times,serif" font-size="14.00">SitioEditComponent</text>
</g>
<!-- SitioEditComponent&#45;&gt;AppModule -->
<g id="edge59" class="edge">
<title>SitioEditComponent&#45;&gt;AppModule</title>
<path fill="none" stroke="black" d="M929,-85.05C929,-107.82 929,-143.8 929,-143.8 929,-143.8 5291.08,-143.8 5291.08,-143.8"/>
<polygon fill="black" stroke="black" points="5291.08,-147.3 5301.08,-143.8 5291.08,-140.3 5291.08,-147.3"/>
</g>
<!-- SitioExcelComponent -->
<g id="node60" class="node">
<title>SitioExcelComponent</title>
<polygon fill="#ffffb3" stroke="black" points="845.66,-84.8 706.34,-84.8 706.34,-48.8 845.66,-48.8 845.66,-84.8"/>
<text text-anchor="middle" x="776" y="-62.6" font-family="Times,serif" font-size="14.00">SitioExcelComponent</text>
</g>
<!-- SitioExcelComponent&#45;&gt;AppModule -->
<g id="edge60" class="edge">
<title>SitioExcelComponent&#45;&gt;AppModule</title>
<path fill="none" stroke="black" d="M776,-84.89C776,-107.93 776,-144.8 776,-144.8 776,-144.8 5291.06,-144.8 5291.06,-144.8"/>
<polygon fill="black" stroke="black" points="5291.06,-148.3 5301.06,-144.8 5291.06,-141.3 5291.06,-148.3"/>
</g>
<!-- SliderComponent -->
<g id="node61" class="node">
<title>SliderComponent</title>
<polygon fill="#ffffb3" stroke="black" points="688.27,-84.8 573.73,-84.8 573.73,-48.8 688.27,-48.8 688.27,-84.8"/>
<text text-anchor="middle" x="631" y="-62.6" font-family="Times,serif" font-size="14.00">SliderComponent</text>
</g>
<!-- SliderComponent&#45;&gt;AppModule -->
<g id="edge61" class="edge">
<title>SliderComponent&#45;&gt;AppModule</title>
<path fill="none" stroke="black" d="M631,-85.12C631,-108.46 631,-145.8 631,-145.8 631,-145.8 5291.19,-145.8 5291.19,-145.8"/>
<polygon fill="black" stroke="black" points="5291.19,-149.3 5301.19,-145.8 5291.19,-142.3 5291.19,-149.3"/>
</g>
<!-- TipoDisComponent -->
<g id="node62" class="node">
<title>TipoDisComponent</title>
<polygon fill="#ffffb3" stroke="black" points="555.72,-84.8 428.28,-84.8 428.28,-48.8 555.72,-48.8 555.72,-84.8"/>
<text text-anchor="middle" x="492" y="-62.6" font-family="Times,serif" font-size="14.00">TipoDisComponent</text>
</g>
<!-- TipoDisComponent&#45;&gt;AppModule -->
<g id="edge62" class="edge">
<title>TipoDisComponent&#45;&gt;AppModule</title>
<path fill="none" stroke="black" d="M492,-84.95C492,-108.56 492,-146.8 492,-146.8 492,-146.8 5291.06,-146.8 5291.06,-146.8"/>
<polygon fill="black" stroke="black" points="5291.06,-150.3 5301.06,-146.8 5291.06,-143.3 5291.06,-150.3"/>
</g>
<!-- AppComponent  -->
<g id="node64" class="node">
<title>AppComponent </title>
<polygon fill="#80b1d3" stroke="black" points="5397.44,-214.8 5288.56,-214.8 5288.56,-178.8 5397.44,-178.8 5397.44,-214.8"/>
<text text-anchor="middle" x="5343" y="-192.6" font-family="Times,serif" font-size="14.00">AppComponent </text>
</g>
<!-- AppModule&#45;&gt;AppComponent  -->
<g id="edge63" class="edge">
<title>AppModule&#45;&gt;AppComponent </title>
<path fill="none" stroke="black" stroke-dasharray="1,5" d="M5343,-149.91C5343,-149.91 5343,-168.79 5343,-168.79"/>
<polygon fill="black" stroke="black" points="5339.5,-168.79 5343,-178.79 5346.5,-168.79 5339.5,-168.79"/>
</g>
<!-- ExporterService -->
<g id="node65" class="node">
<title>ExporterService</title>
<ellipse fill="#fdb462" stroke="black" cx="330" cy="-66.8" rx="73.55" ry="18"/>
<text text-anchor="middle" x="330" y="-62.6" font-family="Times,serif" font-size="14.00">ExporterService</text>
</g>
<!-- ExporterService&#45;&gt;AppModule -->
<g id="edge64" class="edge">
<title>ExporterService&#45;&gt;AppModule</title>
<path fill="none" stroke="black" d="M330,-85.18C330,-109.08 330,-147.8 330,-147.8 330,-147.8 5291.17,-147.8 5291.17,-147.8"/>
<polygon fill="black" stroke="black" points="5291.17,-151.3 5301.17,-147.8 5291.17,-144.3 5291.17,-151.3"/>
</g>
<!-- TokenInterceptorService -->
<g id="node66" class="node">
<title>TokenInterceptorService</title>
<ellipse fill="#fdb462" stroke="black" cx="131" cy="-66.8" rx="107.04" ry="18"/>
<text text-anchor="middle" x="131" y="-62.6" font-family="Times,serif" font-size="14.00">TokenInterceptorService</text>
</g>
<!-- TokenInterceptorService&#45;&gt;AppModule -->
<g id="edge65" class="edge">
<title>TokenInterceptorService&#45;&gt;AppModule</title>
<path fill="none" stroke="black" d="M131,-85C131,-109.16 131,-148.8 131,-148.8 131,-148.8 5291.05,-148.8 5291.05,-148.8"/>
<polygon fill="black" stroke="black" points="5291.05,-152.3 5301.05,-148.8 5291.05,-145.3 5291.05,-152.3"/>
</g>
</g>
</svg>
